<svg xmlns="http://www.w3.org/2000/svg" width="100%" height="100%">
  <defs>
    <pattern id="metatron-grid" patternUnits="userSpaceOnUse" width="120" height="120" viewBox="0 0 120 120">
      <g fill="none" stroke="#ffffff" stroke-width="1.1">
        <path d="M60 4 L108 32 L108 88 L60 116 L12 88 L12 32 Z" />
        <path d="M60 32 L84 46 L84 74 L60 88 L36 74 L36 46 Z" />
        <path d="M60 4 L60 116 M12 32 L108 88 M12 88 L108 32" />
        <path d="M60 60 L60 4 M60 60 L108 32 M60 60 L108 88 M60 60 L60 116 M60 60 L12 88 M60 60 L12 32" />
        <path d="M36 46 L108 32 M84 46 L12 32 M36 74 L108 88 M84 74 L12 88 M60 32 L108 88 M60 32 L12 88 M60 88 L108 32 M60 88 L12 32" />
        <circle cx="60" cy="60" r="12"/>
        <circle cx="60" cy="32" r="12"/>
        <circle cx="84" cy="46" r="12"/>
        <circle cx="84" cy="74" r="12"/>
        <circle cx="60" cy="88" r="12"/>
        <circle cx="36" cy="74" r="12"/>
        <circle cx="36" cy="46" r="12"/>
        <circle cx="60" cy="4" r="12"/>
        <circle cx="108" cy="32" r="12"/>
        <circle cx="108" cy="88" r="12"/>
        <circle cx="60" cy="116" r="12"/>
        <circle cx="12" cy="88" r="12"/>
        <circle cx="12" cy="32" r="12"/>
      </g>
    </pattern>
  </defs>

  <rect width="100%" height="100%" fill="url(#metatron-grid)" />
</svg>
